<svg width="30" height="30" viewBox="0 0 30 30" fill="none" xmlns="http://www.w3.org/2000/svg">
<g id="close_24px">
<path id="icon/navigation/close_24px" d="M22.875 7.13748C22.6414 6.90341 22.3244 6.77187 21.9937 6.77187C21.6631 6.77187 21.346 6.90341 21.1125 7.13748L15 13.2375L8.88746 7.12498C8.65392 6.89091 8.33686 6.75937 8.00621 6.75937C7.67557 6.75937 7.3585 6.89091 7.12496 7.12498C6.63746 7.61248 6.63746 8.39998 7.12496 8.88748L13.2375 15L7.12496 21.1125C6.63746 21.6 6.63746 22.3875 7.12496 22.875C7.61246 23.3625 8.39996 23.3625 8.88746 22.875L15 16.7625L21.1125 22.875C21.6 23.3625 22.3875 23.3625 22.875 22.875C23.3625 22.3875 23.3625 21.6 22.875 21.1125L16.7625 15L22.875 8.88748C23.35 8.41248 23.35 7.61248 22.875 7.13748Z" fill="white"/>
</g>
</svg>
