<svg width="23" height="19" viewBox="0 0 23 19" fill="none" xmlns="http://www.w3.org/2000/svg">
<path d="M3.37122 1.7746C2.91114 1.77395 2.53869 1.40046 2.53934 0.940379C2.53999 0.4803 2.91348 0.107856 3.37356 0.108502L21.8741 0.134484C22.3342 0.13513 22.7066 0.508622 22.706 0.968701C22.7053 1.42878 22.3318 1.80123 21.8718 1.80058L3.37122 1.7746ZM21.8624 8.46496C22.3225 8.46561 22.6949 8.8391 22.6943 9.29918C22.6936 9.75926 22.3201 10.1317 21.8601 10.1311L0.85952 10.1016C0.39944 10.1009 0.0269967 9.72742 0.0276428 9.26734C0.028289 8.80727 0.401781 8.43482 0.86186 8.43547L21.8624 8.46496ZM5.01594 17.6048C5.01658 17.1448 5.39008 16.7723 5.85016 16.773L21.8507 16.7954C22.3108 16.7961 22.6832 17.1696 22.6826 17.6297C22.6819 18.0897 22.3084 18.4622 21.8484 18.4615L5.84781 18.4391C5.38774 18.4384 5.01529 18.0649 5.01594 17.6048Z" fill="black"/>
</svg>
